# xmcd
# 
# Track frame offsets:
#     150
#     26334
#     49522
#     67385
# 
# Disc length: 1207
# 
# Revision: 0
# Processed by: cddbd v1.5.2PL0 Copyright (c) Steve Scherf et al.
# Submitted via: fre:ac v1.0.17
# 
DISCID=3004b504
DTITLE=Primed - Icarus Falls (Demo 2004)
DYEAR=2004
DGENRE=
TTITLE0=Latitude
TTITLE1=Genuflection
TTITLE2=One Big One
TTITLE3=Icarus Falls
EXTD=
EXTT0=
EXTT1=
EXTT2=
EXTT3=
PLAYORDER=
